<?xml version="1.0" encoding="UTF-8"?>
<svg id="Layer_1" xmlns="http://www.w3.org/2000/svg" viewBox="0 0 1840.11 1960.65">
  <defs>
    <style>
      .cls-1 {
        fill-rule: evenodd;
      fill: white
      }
    </style>
  </defs>
  <path class="cls-1" d="M882.64,1.15c-512.24,120.91-369.31,2703.33,242.23,1747.85,639.47,857.56,580.85-2383.44,13.56-1489.99-33.46,68.9-81.69-281.21-255.6-257.89M593.98,121.72c-812.38,307.9-775.41,1498.37,12.73,1757.11-460.36-463.75-413.77-1307.36-12.59-1757.13M999.26,268.58c-319.87,34.98-290.87,1761.46,98.6,1418.06-90.76-383.85-128.01-841.9-22.64-1234.31,32.56-92.6,53.1-187.05-75.78-183.78M1385.58,507.95c-194.07,40.9-206,1020.64,30.7,1005.57,176.74-63.89,198.23-990.87-30.55-1005.6M1752.28,730.43c-102.05,23.49-105.99,610.66,33.38,516.19,69.31-60.13,86.65-527.1-33.25-516.25"/>
</svg>